<svg class="pr-2" width="96" height="84" viewBox="0 0 56 44" fill="none"
    xmlns="http://www.w3.org/2000/svg">
    <path d="M28.4855 33.3953C28.0614 33.6436 27.5393 33.6427 27.1161 33.393L1.02739 18.0022C0.57135 17.7332 0 18.0677 0 18.6038V27.0461C0 27.5425 0.260097 28.0012 0.682539 28.2499L27.1171 43.8129C27.5398 44.0615 28.0609 44.0626 28.4844 43.8151L55.0129 28.3163C55.4374 28.0682 55.6995 27.6082 55.6995 27.1103V18.6663C55.6995 18.1313 55.1299 17.7967 54.674 18.0636L28.4855 33.3953Z" fill="#fff"></path>
    <path d="M27.117 0.186806C27.54 -0.0618233 28.0612 -0.0622973 28.4846 0.185561L53.5834 14.8795C54.0397 15.1464 54.0408 15.8151 53.5856 16.0836L47.4926 19.6797C47.0688 19.9297 46.5462 19.9304 46.1216 19.6813L28.4873 9.32951C28.0625 9.08011 27.5389 9.08104 27.1149 9.33195L26.6054 9.63348C26.1513 9.90225 26.1524 10.5697 26.6075 10.8368L43.5662 20.792C44.0225 21.0598 44.0225 21.7292 43.5662 21.9967L28.4862 30.8395C28.0619 31.0883 27.5393 31.0875 27.1158 30.8376L2.1141 16.0834C1.65906 15.8149 1.66009 15.1464 2.11595 14.8793L8.20888 11.3096C8.63192 11.0617 9.15277 11.0618 9.57569 11.3099L27.1137 21.5967C27.5384 21.8459 28.0618 21.8449 28.4856 21.5941L28.995 21.2926C29.4493 21.0238 29.448 20.3562 28.9927 20.0892L12.133 10.2002C11.677 9.93267 11.6767 9.26363 12.1325 8.99567L27.117 0.186806Z" fill="#fff"></path>
</svg>